# xmcd
#
# Track frame offsets:
#	150
#	19261
#	41407
#	59288
#	79050
#	103113
#	117636
#	137074
#	155445
#	172427
#	189516
#	202618
#
# Disc length: 2952 seconds
#
# Revision: 0
# Processed by: cddbd v1.5.2PL0 Copyright (c) Steve Scherf et al.
# Submitted via: EasyCDDAExtractor 2010.4.0.0
#
DISCID=a40b860c
DTITLE=Aekkaporn sornruk - NirajUdontani
DYEAR=1900
DGENRE=Fast Fusion
TTITLE0=นิราศอุดรธานี
TTITLE1=นักเพลงกำพร้า
TTITLE2=รักสาวสวนยาง
TTITLE3=นักร้องคาเฟ่วอนแฟน
TTITLE4=หัวดอนตาลถามข่าวน้อง
TTITLE5=เต้ยบ่าวครูหาคู่
TTITLE6=ติดตรึงซึ้งเมืองเลย
TTITLE7=ไอ้หนุ่มสวนมัน
TTITLE8=หนุ่มไร่ข้าวโหด
TTITLE9=คนงามเสาะใส
TTITLE10=เสือพรานหวานใจ
TTITLE11=นิราศอุดรธานี
EXTD=
EXTT0=
EXTT1=
EXTT2=
EXTT3=
EXTT4=
EXTT5=
EXTT6=
EXTT7=
EXTT8=
EXTT9=
EXTT10=
EXTT11=
PLAYORDER=
